<svg width="509" height="520" viewBox="0 0 509 520" fill="none" xmlns="http://www.w3.org/2000/svg">
<circle cx="254.5" cy="261.5" r="254.5" fill="black"/>
<path d="M333.942 45H372V318.575H147.175L176.775 275.564L329.713 50.6407V121.855V123.265L228.929 270.629L228.225 271.334V272.039V272.744L228.929 274.154H229.634L230.339 274.859V275.564H330.418V49.9356L333.942 45Z" fill="white"/>
<path d="M305.751 45H268.397L33 384.853L51.3243 415.877L52.0291 415.172L305.751 45Z" fill="white"/>
<path d="M172.547 344.663H128.85L64.9165 436.325L84.4491 471.602L172.547 344.663Z" fill="white"/>
<path d="M372 344.663H330.418V516H372V344.663Z" fill="white"/>
<path d="M176.775 275.564L147.175 318.575H372V45H333.942L330.418 49.9356V275.564H230.339M176.775 275.564L329.713 50.6407V121.855V123.265L228.929 270.629L228.225 271.334V272.039V272.744L228.929 274.154H229.634L230.339 274.859V275.564M176.775 275.564H230.339M268.397 45H305.751L52.0291 415.172L51.3243 415.877L33 384.853L268.397 45ZM128.85 344.663H172.547L84.4491 471.601L64.9165 436.325L128.85 344.663ZM330.418 344.663H372V516H330.418V344.663Z" stroke="white"/>
<path d="M509 260C509 403.594 395.056 520 254.5 520C113.944 520 0 403.594 0 260C0 116.406 113.944 0 254.5 0C395.056 0 509 116.406 509 260ZM7.7305 260C7.7305 399.232 118.213 512.102 254.5 512.102C390.787 512.102 501.27 399.232 501.27 260C501.27 120.768 390.787 7.89757 254.5 7.89757C118.213 7.89757 7.7305 120.768 7.7305 260Z" fill="black"/>
</svg>
